<?xml version="1.0" encoding="utf-8"?>
<!-- Generator: Adobe Illustrator 27.4.0, SVG Export Plug-In . SVG Version: 6.00 Build 0)  -->
<svg version="1.1" id="Lag_1" xmlns="http://www.w3.org/2000/svg" xmlns:xlink="http://www.w3.org/1999/xlink" x="0px" y="0px"
	 viewBox="0 0 377.4 74.8" style="enable-background:new 0 0 377.4 74.8;" xml:space="preserve">
<style type="text/css">
	.st0{fill:#FFFFFF;}
	.st1{clip-path:url(#SVGID_00000173141380194997354710000001117577096767589046_);}
	.st2{font-family:'ArialMT';}
	.st3{font-size:56px;}
</style>
<path class="st0" d="M69.3,41.4V22.3c0-3.5-1.5-5.8-5.2-5.8c-3,0.2-5.8,1.8-7.4,4.3v20.6h-4.4V22.3c0-3.5-1.5-5.8-5.2-5.8
	c-2.8,0-5.9,2.1-7.4,4.4v20.6h-4.4V13.3h4.4v4.1c2.2-2.8,5.5-4.6,9.1-4.8c4.2,0,6.7,2.3,7.5,5.2c2.1-3.1,5.6-5.1,9.4-5.2
	c5.1,0,7.8,2.9,7.8,8.5v20.3C73.6,41.4,69.3,41.4,69.3,41.4z"/>
<path class="st0" d="M81.6,6.4c0-1.7,1.3-3,3-3c1.6,0,2.9,1.3,2.9,3c0,0,0,0,0,0c0,1.6-1.3,2.9-2.8,2.9c0,0,0,0-0.1,0
	C83,9.4,81.6,8.1,81.6,6.4C81.6,6.5,81.6,6.5,81.6,6.4z M82.3,41.4V13.3h4.4v28.1H82.3z"/>
<path class="st0" d="M96.3,35.5V17.2h-4.7v-3.8h4.7V5.7h4.4v7.7h5.7v3.8h-5.7v17.4c0,2.1,0.9,3.6,2.8,3.6c1.1,0,2.2-0.4,3-1.2
	l1.3,3.3c-1.4,1.3-3.3,1.9-5.2,1.8C98.4,42.1,96.3,39.7,96.3,35.5z"/>
<g>
	<defs>
		<rect id="SVGID_1_" x="10.1" y="-14.7" width="275.7" height="89.4"/>
	</defs>
	<clipPath id="SVGID_00000081649187691776033810000003013933274890342791_">
		<use xlink:href="#SVGID_1_"  style="overflow:visible;"/>
	</clipPath>
	<g style="clip-path:url(#SVGID_00000081649187691776033810000003013933274890342791_);">
		<g>
			<path class="st0" d="M52.7,74.6c4.5,0.9,8.9-2,9.8-6.5c0.9-4.5-2-8.9-6.5-9.8c-4.5-0.9-8.9,2-9.8,6.5
				C45.3,69.3,48.2,73.7,52.7,74.6"/>
			<path class="st0" d="M27.6,70.2c3.7,0.8,7.3-1.6,8.1-5.3c0.8-3.7-1.6-7.3-5.3-8.1c-3.7-0.8-7.3,1.6-8.1,5.3l0,0
				C21.5,65.8,23.8,69.5,27.6,70.2"/>
			<path class="st0" d="M14.5,51.9c3,0.6,5.8-1.3,6.4-4.3s-1.3-5.8-4.3-6.4c-3-0.6-5.8,1.3-6.4,4.3C9.6,48.4,11.5,51.3,14.5,51.9
				C14.5,51.9,14.5,51.9,14.5,51.9"/>
			<path class="st0" d="M14.7,31.1c2.4,0.5,4.7-1,5.2-3.4c0.5-2.4-1-4.7-3.4-5.2s-4.7,1-5.2,3.4C10.8,28.3,12.3,30.6,14.7,31.1"/>
		</g>
	</g>
</g>
<text transform="matrix(1 0 0 1 110.3199 42.5187)" class="st0 st2 st3">FORS</text>
<text transform="matrix(1 0 0 1 251.1899 42.5187)" class="st0 st2 st3">L</text>
<text transform="matrix(1 0 0 1 282.0699 42.5187)" class="st0 st2 st3">A</text>
<text transform="matrix(1 0 0 1 319.64 42.5187)" class="st0 st2 st3">G</text>
</svg>
